<svg xmlns="http://www.w3.org/2000/svg" width="225" height="225" viewBox="0 0 225 225">
  <defs>
    <style>
      .cls-1 {
        fill: #272727;
        stroke: #fff;
        stroke-width: 1px;
        fill-rule: evenodd;
      }
    </style>
  </defs>
  <path id="deeplearning" class="cls-1" d="M36.5,45A15.5,15.5,0,1,1,21,60.5,15.5,15.5,0,0,1,36.5,45Zm152,52A15.5,15.5,0,1,1,173,112.5,15.5,15.5,0,0,1,188.5,97Zm0,52A15.5,15.5,0,1,1,173,164.5,15.5,15.5,0,0,1,188.5,149Zm0-104A15.5,15.5,0,1,1,173,60.5,15.5,15.5,0,0,1,188.5,45Zm-76,28A15.5,15.5,0,1,1,97,88.5,15.5,15.5,0,0,1,112.5,73Zm0,51A15.5,15.5,0,1,1,97,139.5,15.5,15.5,0,0,1,112.5,124Zm-76,25A15.5,15.5,0,1,1,21,164.5,15.5,15.5,0,0,1,36.5,149Zm0-52A15.5,15.5,0,1,1,21,112.5,15.5,15.5,0,0,1,36.5,97ZM53.022,69.3l1.956-4.6,40,17-1.956,4.6Zm0,51,1.956-4.6,40,17-1.956,4.6Zm76-25,1.956-4.6,40,17-1.956,4.6Zm1,52,1.956-4.6,40,17-1.956,4.6ZM54.978,112.877l-1.956-4.6,40-17,1.956,4.6Zm0,52-1.956-4.6,40-17,1.956,4.6Zm77-26-1.956-4.6,40-17,1.956,4.6Zm-1-52-1.956-4.6,40-17,1.956,4.6Z"/>
</svg>
